<svg id="Calque_1" data-name="Calque 1" xmlns="http://www.w3.org/2000/svg" xmlns:xlink="http://www.w3.org/1999/xlink" viewBox="0 0 210.94 254.63"><defs><style>.cls-1{fill:none;}.cls-2,.cls-5{isolation:isolate;}.cls-3,.cls-5{fill:#fff;}.cls-4{clip-path:url(#clip-path);}</style><clipPath id="clip-path" transform="translate(-101.83 -368.67)"><path class="cls-1" d="M198.48,602.63C97.52,553.54,107.7,416,107.7,416s23.08,18.4,45.24,18.4S198.48,416,198.48,416s23.37,18.4,45.53,18.4S289.26,416,289.26,416,299.43,553.54,198.48,602.63Z"/></clipPath></defs><g class="cls-2"><path class="cls-3" d="M198.91,405.09c2.21,1.1,4.47,2.07,6.75,3s4.59,1.68,6.9,2.42a99.46,99.46,0,0,0,14.08,3.31,85.82,85.82,0,0,0,14.16,1.13,63.12,63.12,0,0,0,6.81-.36A35.58,35.58,0,0,0,254,413a58.44,58.44,0,0,0,12.24-5.92,104.05,104.05,0,0,0,11.37-8.19c3.64-3,7.17-6.16,10.55-9.49,1.69-1.66,3.35-3.36,5-5.09l2.4-2.61c.77-.86,1.6-1.79,2.25-2.57l8.74-10.47L309,382.31c.29,1.59.51,3,.74,4.44l.62,4.34c.38,2.89.73,5.78,1,8.67q.82,8.67,1.2,17.37A299.81,299.81,0,0,1,311.9,452a266.94,266.94,0,0,1-4.9,34.61,218.68,218.68,0,0,1-10,33.67q-3.19,8.22-7.2,16.11A156,156,0,0,1,281,551.65c-1.59,2.48-3.3,4.88-5,7.29s-3.56,4.7-5.47,6.94c-.93,1.15-1.87,2.27-2.87,3.36s-1.93,2.22-2.95,3.28l-3.08,3.16c-1,1-2.12,2-3.18,3.05a133.44,133.44,0,0,1-28.35,20.41c-1.27.7-2.54,1.38-3.86,2s-2.6,1.27-3.9,1.88c-2.67,1.12-5.27,2.35-8,3.32-1.34.51-2.68,1-4,1.52l-4.09,1.32c-1.36.45-2.74.84-4.12,1.21s-2.76.74-4.14,1.11a180.19,180.19,0,0,0,29.18-17.07,146,146,0,0,0,12.94-10.5,143.24,143.24,0,0,0,11.61-11.77c14.57-16.5,25.12-36,32.29-56.75s11.19-42.59,13.07-64.66c.9-11,1.32-22.15,1.17-33.26,0-5.56-.22-11.12-.54-16.66-.18-2.77-.35-5.54-.58-8.29l-.37-4.12c-.14-1.35-.3-2.78-.46-4l11.23,3.17c-1,1.06-1.82,1.93-2.74,2.86s-1.81,1.81-2.73,2.69c-1.85,1.76-3.73,3.47-5.65,5.15a147.6,147.6,0,0,1-12,9.51c-8.36,5.88-17.47,11.18-28,13.79a43.66,43.66,0,0,1-8.11,1.14,32.18,32.18,0,0,1-4.08-.09c-1.29-.08-2.57-.22-3.85-.36a84.36,84.36,0,0,1-15-3.31,88.52,88.52,0,0,1-13.94-5.82c-2.23-1.13-4.39-2.39-6.49-3.73A60.49,60.49,0,0,1,198.91,405.09Z" transform="translate(-101.83 -368.67)"/></g><g class="cls-4"><rect class="cls-5" y="39.55" width="96.12" height="215.08"/><rect class="cls-5" x="96.12" y="39.55" width="96.12" height="215.08"/></g></svg>